<svg width="30" height="30" viewBox="0 0 30 30" fill="none" xmlns="http://www.w3.org/2000/svg">
<path d="M28.2224 3.31405L26.2976 2.4303V16.6807L29.788 7.43293C30.3769 5.82325 29.7018 3.97685 28.2224 3.31405ZM0.213087 9.15308L7.33749 28.0116C7.54728 28.5853 7.90513 29.0792 8.36703 29.4325C8.82893 29.7858 9.37474 29.983 9.93733 30C10.3108 30 10.6986 29.9211 11.0721 29.7475L21.6581 24.9342C22.7354 24.445 23.3961 23.2772 23.4249 22.1094C23.4392 21.6991 23.3674 21.2415 23.2381 20.8311L16.0563 1.97265C15.8533 1.39509 15.4967 0.898044 15.033 0.546212C14.5693 0.19438 14.02 0.00405219 13.4564 0C13.083 0 12.7095 0.0946872 12.3504 0.236718L1.77873 5.04997C1.07601 5.36614 0.516321 5.97598 0.222728 6.7454C-0.0708648 7.51482 -0.0743329 8.38085 0.213087 9.15308ZM23.4105 3.15623C23.4105 2.31915 23.1078 1.51635 22.5691 0.924439C22.0304 0.332531 21.2997 0 20.5378 0H18.455L23.4105 13.1615" fill="white"/>
</svg>
