<svg width="25" height="25" viewBox="0 0 25 25" fill="none" xmlns="http://www.w3.org/2000/svg">
<path d="M20.8333 25C19.6759 25 18.6921 24.6354 17.8819 23.9062C17.0718 23.1771 16.6667 22.2917 16.6667 21.25C16.6667 21.1042 16.6782 20.9529 16.7014 20.7962C16.7245 20.6396 16.7593 20.4992 16.8056 20.375L7.01389 15.25C6.62037 15.5625 6.18056 15.8075 5.69444 15.985C5.20833 16.1625 4.69907 16.2508 4.16667 16.25C3.00926 16.25 2.02546 15.8854 1.21528 15.1562C0.405093 14.4271 0 13.5417 0 12.5C0 11.4583 0.405093 10.5729 1.21528 9.84375C2.02546 9.11458 3.00926 8.75 4.16667 8.75C4.69907 8.75 5.20833 8.83875 5.69444 9.01625C6.18056 9.19375 6.62037 9.43833 7.01389 9.75L16.8056 4.625C16.7593 4.5 16.7245 4.35958 16.7014 4.20375C16.6782 4.04792 16.6667 3.89667 16.6667 3.75C16.6667 2.70833 17.0718 1.82292 17.8819 1.09375C18.6921 0.364583 19.6759 0 20.8333 0C21.9907 0 22.9745 0.364583 23.7847 1.09375C24.5949 1.82292 25 2.70833 25 3.75C25 4.79167 24.5949 5.67708 23.7847 6.40625C22.9745 7.13542 21.9907 7.5 20.8333 7.5C20.3009 7.5 19.7917 7.41167 19.3056 7.235C18.8194 7.05833 18.3796 6.81333 17.9861 6.5L8.19444 11.625C8.24074 11.75 8.27546 11.8908 8.29861 12.0475C8.32176 12.2042 8.33333 12.355 8.33333 12.5C8.33333 12.6458 8.32176 12.7971 8.29861 12.9537C8.27546 13.1104 8.24074 13.2508 8.19444 13.375L17.9861 18.5C18.3796 18.1875 18.8194 17.9429 19.3056 17.7662C19.7917 17.5896 20.3009 17.5008 20.8333 17.5C21.9907 17.5 22.9745 17.8646 23.7847 18.5938C24.5949 19.3229 25 20.2083 25 21.25C25 22.2917 24.5949 23.1771 23.7847 23.9062C22.9745 24.6354 21.9907 25 20.8333 25Z" fill="black"/>
</svg>
