<svg width="26" height="26" viewBox="0 0 26 26" fill="none" xmlns="http://www.w3.org/2000/svg">
<g clip-path="url(#clip0_325_52)">
<rect width="26" height="26" fill="white"/>
<path d="M9.05747 0.855259C6.45967 1.75646 4.21932 3.46697 2.66551 5.73554C1.1117 8.00412 0.326327 10.7112 0.424743 13.4591C0.523159 16.207 1.50018 18.851 3.2123 21.0026C4.92442 23.1542 7.28138 24.7 9.937 25.4131C12.09 25.9686 14.3456 25.993 16.5101 25.4842C18.4709 25.0437 20.2837 24.1016 21.7711 22.7501C23.319 21.3005 24.4426 19.4564 25.0211 17.416C25.6496 15.1972 25.7614 12.8639 25.3481 10.5951H13.2581V15.6103H20.2598C20.1199 16.4101 19.82 17.1736 19.3781 17.8549C18.9363 18.5361 18.3615 19.1213 17.6883 19.5753C16.8334 20.141 15.8695 20.5216 14.8587 20.6924C13.845 20.881 12.8052 20.881 11.7915 20.6924C10.764 20.4803 9.79205 20.0562 8.93763 19.4473C7.5648 18.4755 6.534 17.095 5.99231 15.5026C5.44162 13.8804 5.44162 12.1218 5.99231 10.4996C6.3779 9.36257 7.01532 8.32728 7.857 7.47104C8.8202 6.47318 10.0396 5.75991 11.3815 5.40948C12.7234 5.05904 14.1359 5.08499 15.464 5.48448C16.5016 5.80282 17.4504 6.35929 18.2347 7.10948C19.0241 6.32406 19.8123 5.53661 20.599 4.74713C21.0053 4.3226 21.4481 3.91838 21.8482 3.4837C20.6509 2.36959 19.2455 1.50263 17.7126 0.932447C14.9211 -0.0811677 11.8666 -0.108408 9.05747 0.855259Z" fill="white"/>
<path d="M9.05727 0.85527C11.8662 -0.109052 14.9206 -0.0825291 17.7124 0.930426C19.2456 1.50448 20.6503 2.37562 21.846 3.49386C21.4398 3.92855 21.0112 4.3348 20.5968 4.7573C19.8087 5.54407 19.0212 6.32813 18.2345 7.10949C17.4502 6.3593 16.5014 5.80283 15.4638 5.48449C14.1362 5.0836 12.7237 5.05615 11.3815 5.40515C10.0392 5.75415 8.81902 6.46611 7.85477 7.46293C7.01308 8.31917 6.37566 9.35446 5.99008 10.4915L1.7793 7.23136C3.2865 4.2425 5.89613 1.95626 9.05727 0.85527Z" fill="#E33629"/>
<path d="M0.662025 10.4611C0.888184 9.33942 1.26394 8.25315 1.77921 7.23145L5.98999 10.4997C5.4393 12.1219 5.4393 13.8805 5.98999 15.5027C4.58708 16.586 3.18348 17.6748 1.77921 18.7689C0.489675 16.2021 0.0963887 13.2775 0.662025 10.4611Z" fill="#F8BD00"/>
<path d="M13.2577 10.5928H25.3477C25.7611 12.8616 25.6492 15.1949 25.0207 17.4137C24.4423 19.4541 23.3187 21.2982 21.7707 22.7478C20.4118 21.6875 19.0468 20.6353 17.6879 19.575C18.3616 19.1205 18.9366 18.5347 19.3785 17.8527C19.8204 17.1707 20.12 16.4065 20.2595 15.6059H13.2577C13.2557 13.9362 13.2577 12.2645 13.2577 10.5928Z" fill="#587DBD"/>
<path d="M1.77734 18.7687C3.18161 17.6854 4.58521 16.5966 5.98812 15.5024C6.53089 17.0953 7.56317 18.476 8.9375 19.4471C9.79459 20.0532 10.7687 20.4738 11.7975 20.6821C12.8112 20.8707 13.851 20.8707 14.8647 20.6821C15.8755 20.5113 16.8393 20.1307 17.6942 19.5649C19.0531 20.6253 20.4181 21.6774 21.777 22.7378C20.2899 24.09 18.4771 25.0328 16.5161 25.4738C14.3516 25.9827 12.0959 25.9583 9.94297 25.4028C8.24018 24.9481 6.64965 24.1466 5.27109 23.0485C3.8121 21.89 2.62038 20.4301 1.77734 18.7687Z" fill="#319F43"/>
</g>
<defs>
<clipPath id="clip0_325_52">
<rect width="26" height="26" fill="white"/>
</clipPath>
</defs>
</svg>
